<mxfile host="app.diagrams.net" modified="2022-01-21T21:18:19.254Z" agent="5.0 (Windows)" etag="nGf3mv0N74bIxK4U1-7N" version="16.4.3" type="github">
  <diagram id="2OeCMw92XQ78I3OQIPXf" name="Page-1">
    <mxGraphModel dx="1422" dy="752" grid="1" gridSize="10" guides="1" tooltips="1" connect="1" arrows="1" fold="1" page="1" pageScale="1" pageWidth="850" pageHeight="1100" math="0" shadow="0">
      <root>
        <mxCell id="0" />
        <mxCell id="1" parent="0" />
        <mxCell id="WIig9ksnTW_awLQ5WitU-1" value="" style="swimlane;startSize=0;" vertex="1" parent="1">
          <mxGeometry x="200" y="80" width="520" height="520" as="geometry" />
        </mxCell>
        <mxCell id="WIig9ksnTW_awLQ5WitU-2" value="&lt;div&gt;Check Date&lt;/div&gt;&lt;div&gt;&amp;amp; Time&lt;br&gt;&lt;/div&gt;" style="ellipse;whiteSpace=wrap;html=1;" vertex="1" parent="WIig9ksnTW_awLQ5WitU-1">
          <mxGeometry x="207.5" y="270" width="105" height="50" as="geometry" />
        </mxCell>
        <mxCell id="WIig9ksnTW_awLQ5WitU-3" value="Check Patient Name" style="ellipse;whiteSpace=wrap;html=1;" vertex="1" parent="WIig9ksnTW_awLQ5WitU-1">
          <mxGeometry x="40" y="270" width="105" height="50" as="geometry" />
        </mxCell>
        <mxCell id="WIig9ksnTW_awLQ5WitU-4" value="&lt;div&gt;Check Visit &lt;br&gt;&lt;/div&gt;&lt;div&gt;Type&lt;/div&gt;" style="ellipse;whiteSpace=wrap;html=1;" vertex="1" parent="WIig9ksnTW_awLQ5WitU-1">
          <mxGeometry x="380" y="270" width="105" height="50" as="geometry" />
        </mxCell>
        <mxCell id="WIig9ksnTW_awLQ5WitU-5" value="Check Appointments" style="ellipse;whiteSpace=wrap;html=1;" vertex="1" parent="WIig9ksnTW_awLQ5WitU-1">
          <mxGeometry x="200" y="40" width="120" height="80" as="geometry" />
        </mxCell>
        <mxCell id="WIig9ksnTW_awLQ5WitU-6" value="" style="endArrow=classic;html=1;rounded=0;exitX=0.5;exitY=1;exitDx=0;exitDy=0;entryX=0.5;entryY=0;entryDx=0;entryDy=0;dashed=1;verticalAlign=bottom;startArrow=none;startFill=0;endFill=1;" edge="1" parent="WIig9ksnTW_awLQ5WitU-1" source="WIig9ksnTW_awLQ5WitU-5" target="WIig9ksnTW_awLQ5WitU-3">
          <mxGeometry width="50" height="50" relative="1" as="geometry">
            <mxPoint x="210" y="320" as="sourcePoint" />
            <mxPoint x="260" y="270" as="targetPoint" />
          </mxGeometry>
        </mxCell>
        <mxCell id="WIig9ksnTW_awLQ5WitU-7" value="&amp;lt;&amp;lt;include&amp;gt;&amp;gt;" style="edgeLabel;html=1;align=center;verticalAlign=middle;resizable=0;points=[];" vertex="1" connectable="0" parent="WIig9ksnTW_awLQ5WitU-6">
          <mxGeometry x="0.3918" y="1" relative="1" as="geometry">
            <mxPoint as="offset" />
          </mxGeometry>
        </mxCell>
        <mxCell id="WIig9ksnTW_awLQ5WitU-8" value="" style="endArrow=classic;html=1;rounded=0;dashed=1;entryX=0.5;entryY=0;entryDx=0;entryDy=0;verticalAlign=bottom;startArrow=none;startFill=0;endFill=1;" edge="1" parent="WIig9ksnTW_awLQ5WitU-1" source="WIig9ksnTW_awLQ5WitU-5" target="WIig9ksnTW_awLQ5WitU-2">
          <mxGeometry width="50" height="50" relative="1" as="geometry">
            <mxPoint x="210" y="320" as="sourcePoint" />
            <mxPoint x="260" y="270" as="targetPoint" />
          </mxGeometry>
        </mxCell>
        <mxCell id="WIig9ksnTW_awLQ5WitU-9" value="&amp;lt;&amp;lt;include&amp;gt;&amp;gt;" style="edgeLabel;html=1;align=center;verticalAlign=middle;resizable=0;points=[];" vertex="1" connectable="0" parent="WIig9ksnTW_awLQ5WitU-8">
          <mxGeometry x="-0.2363" y="2" relative="1" as="geometry">
            <mxPoint as="offset" />
          </mxGeometry>
        </mxCell>
        <mxCell id="WIig9ksnTW_awLQ5WitU-10" value="" style="endArrow=classic;html=1;rounded=0;dashed=1;exitX=0.5;exitY=1;exitDx=0;exitDy=0;entryX=0.5;entryY=0;entryDx=0;entryDy=0;verticalAlign=bottom;startArrow=none;startFill=0;endFill=1;" edge="1" parent="WIig9ksnTW_awLQ5WitU-1" source="WIig9ksnTW_awLQ5WitU-5" target="WIig9ksnTW_awLQ5WitU-4">
          <mxGeometry width="50" height="50" relative="1" as="geometry">
            <mxPoint x="210" y="320" as="sourcePoint" />
            <mxPoint x="260" y="270" as="targetPoint" />
          </mxGeometry>
        </mxCell>
        <mxCell id="WIig9ksnTW_awLQ5WitU-11" value="&amp;lt;&amp;lt;include&amp;gt;&amp;gt;" style="edgeLabel;html=1;align=center;verticalAlign=middle;resizable=0;points=[];" vertex="1" connectable="0" parent="WIig9ksnTW_awLQ5WitU-10">
          <mxGeometry x="0.4111" y="1" relative="1" as="geometry">
            <mxPoint as="offset" />
          </mxGeometry>
        </mxCell>
        <mxCell id="WIig9ksnTW_awLQ5WitU-18" value="&lt;div&gt;Reschedule Date&lt;/div&gt;&lt;div&gt;&amp;amp; Time&lt;br&gt;&lt;/div&gt;" style="ellipse;whiteSpace=wrap;html=1;" vertex="1" parent="WIig9ksnTW_awLQ5WitU-1">
          <mxGeometry x="207.5" y="420" width="105" height="50" as="geometry" />
        </mxCell>
        <mxCell id="WIig9ksnTW_awLQ5WitU-19" value="" style="endArrow=classic;html=1;rounded=0;exitX=0.5;exitY=0;exitDx=0;exitDy=0;dashed=1;" edge="1" parent="WIig9ksnTW_awLQ5WitU-1" source="WIig9ksnTW_awLQ5WitU-18" target="WIig9ksnTW_awLQ5WitU-2">
          <mxGeometry width="50" height="50" relative="1" as="geometry">
            <mxPoint x="200" y="330" as="sourcePoint" />
            <mxPoint x="250" y="280" as="targetPoint" />
          </mxGeometry>
        </mxCell>
        <mxCell id="WIig9ksnTW_awLQ5WitU-20" value="&amp;lt;&amp;lt;extend&amp;gt;&amp;gt;" style="edgeLabel;html=1;align=center;verticalAlign=middle;resizable=0;points=[];" vertex="1" connectable="0" parent="WIig9ksnTW_awLQ5WitU-19">
          <mxGeometry x="-0.2" relative="1" as="geometry">
            <mxPoint x="1" as="offset" />
          </mxGeometry>
        </mxCell>
        <mxCell id="WIig9ksnTW_awLQ5WitU-15" value="Doctor" style="shape=umlActor;verticalLabelPosition=bottom;verticalAlign=top;html=1;outlineConnect=0;" vertex="1" parent="1">
          <mxGeometry x="50" y="220" width="30" height="60" as="geometry" />
        </mxCell>
        <mxCell id="WIig9ksnTW_awLQ5WitU-16" value="" style="endArrow=none;html=1;rounded=0;entryX=0;entryY=0.5;entryDx=0;entryDy=0;exitX=1;exitY=0.3333333333333333;exitDx=0;exitDy=0;exitPerimeter=0;" edge="1" parent="1" source="WIig9ksnTW_awLQ5WitU-15" target="WIig9ksnTW_awLQ5WitU-5">
          <mxGeometry width="50" height="50" relative="1" as="geometry">
            <mxPoint x="410" y="400" as="sourcePoint" />
            <mxPoint x="460" y="350" as="targetPoint" />
          </mxGeometry>
        </mxCell>
      </root>
    </mxGraphModel>
  </diagram>
</mxfile>
